{
  "accessors": [
    {
      "bufferView": 3,
      "componentType": 5126,
      "count": 1180,
      "max": [
        160.21920776367188,
        195.374267578125,
        19.478410720825195
      ],
      "min": [
        -143.26129150390625,
        -2.6558780670166016,
        -17.35491943359375
      ],
      "type": "VEC3"
    },
    {
      "bufferView": 3,
      "byteOffset": 14160,
      "componentType": 5126,
      "count": 1180,
      "max": [
        0.9990823864936829,
        0.9640315771102905,
        0.9934169054031372
      ],
      "min": [
        -0.9999178647994995,
        -0.9986287355422974,
        -0.9995679259300232
      ],
      "type": "VEC3"
    },
    {
      "bufferView": 2,
      "componentType": 5126,
      "count": 1180,
      "max": [
        0.9861115217208862,
        0.9829760193824768
      ],
      "min": [
        0.01388850063085556,
        0.04795999825000763
      ],
      "type": "VEC2"
    },
    {
      "bufferView": 1,
      "componentType": 5125,
      "count": 6066,
      "type": "SCALAR"
    },
    {
      "bufferView": 5,
      "componentType": 5126,
      "count": 28,
      "max": [
        1.0,
        0.0005887833540327847,
        7.846320659155026e-05,
        0.0,
        0.0018568378873169422,
        1.0,
        7.070456575775097e-08,
        0.0,
        4.445190743274097e-11,
        0.0,
        1.0,
        0.0,
        98.00122833251953,
        0.26468467712402344,
        4.723975658416748,
        1.0
      ],
      "min": [
        0.9365085959434509,
        -0.0018568378873169422,
        -5.782274136744238e-18,
        0.0,
        -0.0005887833540327847,
        0.9365085959434509,
        0.0,
        0.0,
        -7.846320659155026e-05,
        -7.070457286317833e-08,
        0.9365103244781494,
        0.0,
        -98.19695281982422,
        -173.25392150878906,
        -11.155123710632324,
        1.0
      ],
      "type": "MAT4"
    },
    {
      "bufferView": 0,
      "componentType": 5123,
      "count": 1180,
      "type": "VEC4"
    },
    {
      "bufferView": 4,
      "componentType": 5126,
      "count": 1180,
      "max": [
        1.0,
        0.5,
        0.300459086894989,
        0.14226700365543365
      ],
      "min": [
        0.33090779185295105,
        0.0,
        0.0,
        0.0
      ],
      "type": "VEC4"
    }
  ],
  "asset": {
    "extras": {
      "author": "DAELHERI (https://sketchfab.com/DAELHERI)",
      "license": "CC-BY-4.0 (http://creativecommons.org/licenses/by/4.0/)",
      "source": "https://sketchfab.com/3d-models/monster-ps1-style-4924dbb27a1b4fe48c99d68ad06ac9a1",
      "title": "monster ps1 style"
    },
    "generator": "Sketchfab-16.59.0",
    "version": "2.0"
  },
  "bufferViews": [
    {
      "buffer": 0,
      "byteLength": 9440,
      "byteStride": 8,
      "name": "shortBufferViews",
      "target": 34962
    },
    {
      "buffer": 0,
      "byteLength": 24264,
      "byteOffset": 9440,
      "name": "floatBufferViews",
      "target": 34963
    },
    {
      "buffer": 0,
      "byteLength": 9440,
      "byteOffset": 33704,
      "byteStride": 8,
      "name": "floatBufferViews",
      "target": 34962
    },
    {
      "buffer": 0,
      "byteLength": 28320,
      "byteOffset": 43144,
      "byteStride": 12,
      "name": "floatBufferViews",
      "target": 34962
    },
    {
      "buffer": 0,
      "byteLength": 18880,
      "byteOffset": 71464,
      "byteStride": 16,
      "name": "floatBufferViews",
      "target": 34962
    },
    {
      "buffer": 0,
      "byteLength": 1792,
      "byteOffset": 90344,
      "name": "floatBufferViews"
    }
  ],
  "buffers": [
    {
      "byteLength": 92136,
      "uri": "scene.bin"
    }
  ],
  "images": [
    {
      "uri": "textures/enemy_texture_Default_Material1_baseColor.png"
    }
  ],
  "materials": [
    {
      "doubleSided": true,
      "name": "enemy_texture_Default_Material1",
      "pbrMetallicRoughness": {
        "baseColorTexture": {
          "index": 0
        },
        "metallicFactor": 0.0,
        "roughnessFactor": 0.8244250495637175
      }
    }
  ],
  "meshes": [
    {
      "name": "humanBody_enemy_texture_Default Material1_0",
      "primitives": [
        {
          "attributes": {
            "JOINTS_0": 5,
            "NORMAL": 1,
            "POSITION": 0,
            "TEXCOORD_0": 2,
            "WEIGHTS_0": 6
          },
          "indices": 3,
          "material": 0,
          "mode": 4
        }
      ]
    }
  ],
  "nodes": [
    {
      "children": [
        1
      ],
      "matrix": [
        1.0,
        0.0,
        0.0,
        0.0,
        0.0,
        2.220446049250313e-16,
        -1.0,
        0.0,
        0.0,
        1.0,
        2.220446049250313e-16,
        0.0,
        0.0,
        0.0,
        0.0,
        1.0
      ],
      "name": "Sketchfab_model"
    },
    {
      "children": [
        2
      ],
      "matrix": [
        0.009999999776482582,
        0.0,
        0.0,
        0.0,
        0.0,
        0.0,
        0.009999999776482582,
        0.0,
        0.0,
        -0.009999999776482582,
        0.0,
        0.0,
        0.0,
        0.0,
        0.0,
        1.0
      ],
      "name": "f9802b57e63e4a788e6b83b034986239.fbx"
    },
    {
      "children": [
        3
      ],
      "name": "RootNode"
    },
    {
      "children": [
        4
      ],
      "matrix": [
        1.0,
        0.0,
        0.0,
        0.0,
        0.0,
        0.9999999999999971,
        -7.549789415861594e-08,
        0.0,
        0.0,
        7.549789415861594e-08,
        0.9999999999999971,
        0.0,
        0.0,
        0.0,
        0.0,
        1.0
      ],
      "name": "Character1_Reference"
    },
    {
      "children": [
        5,
        34,
        33
      ],
      "name": "Object_4"
    },
    {
      "children": [
        6
      ],
      "name": "_rootJoint"
    },
    {
      "children": [
        7,
        12,
        17
      ],
      "name": "Character1_Hips_00",
      "rotation": [
        -0.2851848304271698,
        0.020103653892874718,
        0.06098470836877823,
        0.9563191533088684
      ],
      "scale": [
        0.9999999403953552,
        1.0,
        1.0
      ],
      "translation": [
        5.317676067352295,
        66.80815124511719,
        15.844432830810547
      ]
    },
    {
      "children": [
        8
      ],
      "name": "Character1_LeftUpLeg_01",
      "rotation": [
        -0.14591696858406067,
        -0.16725599765777588,
        -0.02300252392888069,
        0.9747843742370605
      ],
      "scale": [
        1.0,
        1.0,
        1.0000001192092896
      ],
      "translation": [
        14.345407485961914,
        -5.514598846435547,
        -4.246830940246582e-06
      ]
    },
    {
      "children": [
        9
      ],
      "name": "Character1_LeftLeg_02",
      "rotation": [
        0.518200159072876,
        0.02823328785598278,
        0.02444404363632202,
        0.8544436693191528
      ],
      "scale": [
        1.0,
        0.9999999403953552,
        1.0
      ],
      "translation": [
        -5.340576171875e-05,
        -42.286415100097656,
        1.8864779472351074
      ]
    },
    {
      "children": [
        10
      ],
      "name": "Character1_LeftFoot_03",
      "rotation": [
        -0.10923819988965988,
        0.05224161222577095,
        -0.16637472808361053,
        0.9785996675491333
      ],
      "scale": [
        0.9999999403953552,
        0.9999998807907104,
        0.9999999403953552
      ],
      "translation": [
        1.722574234008789e-05,
        -39.197845458984375,
        -6.610577583312988
      ]
    },
    {
      "children": [
        11
      ],
      "name": "Character1_LeftToeBase_04",
      "rotation": [
        9.062703658271193e-15,
        4.5910540993898685e-15,
        -9.438061226649253e-15,
        1.0
      ],
      "translation": [
        -2.18593692779541,
        -3.2012932300567627,
        19.317058563232422
      ]
    },
    {
      "name": "Character1_LeftToeBase_end_022",
      "rotation": [
        2.117582368135751e-22,
        5.293955920339377e-23,
        -3.648742957378989e-23,
        1.0
      ],
      "translation": [
        0.0,
        16.198579788208008,
        7.105427357601002e-15
      ]
    },
    {
      "children": [
        13
      ],
      "name": "Character1_RightUpLeg_05",
      "rotation": [
        0.023908138275146484,
        0.30253323912620544,
        -0.06403253972530365,
        0.9506849646568298
      ],
      "scale": [
        1.0,
        1.0000001192092896,
        1.0000001192092896
      ],
      "translation": [
        -14.345403671264648,
        -5.514601230621338,
        -2.8759241104125977e-06
      ]
    },
    {
      "children": [
        14
      ],
      "name": "Character1_RightLeg_06",
      "rotation": [
        0.5747119188308716,
        -0.06764961779117584,
        -0.06751714646816254,
        0.812755286693573
      ],
      "translation": [
        -0.00022220611572265625,
        -42.286346435546875,
        1.8869338035583496
      ]
    },
    {
      "children": [
        15
      ],
      "name": "Character1_RightFoot_07",
      "rotation": [
        -0.2804298400878906,
        -0.10646539181470871,
        0.2867279052734375,
        0.9098413586616516
      ],
      "scale": [
        0.9999999403953552,
        1.0,
        0.9999999403953552
      ],
      "translation": [
        -1.1086463928222656e-05,
        -39.197853088378906,
        -6.6105637550354
      ]
    },
    {
      "children": [
        16
      ],
      "name": "Character1_RightToeBase_08",
      "rotation": [
        4.1382008930668235e-11,
        4.1891464206855744e-05,
        1.5120349416974932e-11,
        1.0
      ],
      "translation": [
        -2.2691383492201567e-06,
        -3.2012858390808105,
        15.87909984588623
      ]
    },
    {
      "name": "Character1_RightToeBase_end_023",
      "rotation": [
        -2.168404344971009e-19,
        4.336808689942018e-19,
        1.452661504541125e-19,
        1.0
      ],
      "translation": [
        3.552713678800501e-15,
        16.198579788208008,
        7.105427357601002e-15
      ]
    },
    {
      "children": [
        18
      ],
      "name": "Character1_Spine_09",
      "rotation": [
        0.022311968728899956,
        0.017029939219355583,
        -0.002018562750890851,
        0.9996039867401123
      ],
      "scale": [
        1.0,
        1.0000001192092896,
        1.0000001192092896
      ],
      "translation": [
        2.980232238769531e-07,
        7.000003337860107,
        -3.958120942115784e-06
      ]
    },
    {
      "children": [
        19
      ],
      "name": "Character1_Spine1_010",
      "rotation": [
        0.26215314865112305,
        0.13927681744098663,
        -0.058416545391082764,
        0.9531344175338745
      ],
      "scale": [
        1.0,
        1.0,
        0.9999998807907104
      ],
      "translation": [
        3.5762786865234375e-07,
        18.7728328704834,
        4.693865776062012e-06
      ]
    },
    {
      "children": [
        20,
        25,
        30
      ],
      "name": "Character1_Spine2_011",
      "rotation": [
        0.2802368998527527,
        0.08526649326086044,
        -0.12036518007516861,
        0.9485299587249756
      ],
      "scale": [
        0.9999999403953552,
        0.9999998807907104,
        0.9999998807907104
      ],
      "translation": [
        -5.364418029785156e-07,
        18.772836685180664,
        -4.470348358154297e-07
      ]
    },
    {
      "children": [
        21
      ],
      "name": "Character1_LeftShoulder_012",
      "rotation": [
        -0.03933542221784592,
        -0.27018919587135315,
        -0.38443565368652344,
        0.8818501830101013
      ],
      "scale": [
        1.0000001192092896,
        1.0,
        1.0000001192092896
      ],
      "translation": [
        11.834806442260742,
        9.945596694946289,
        -3.753197193145752
      ]
    },
    {
      "children": [
        22
      ],
      "name": "Character1_LeftArm_013",
      "rotation": [
        0.12205611169338226,
        0.29424452781677246,
        -0.16140133142471313,
        0.934062123298645
      ],
      "scale": [
        1.0,
        0.9999999403953552,
        1.0
      ],
      "translation": [
        32.45036697387695,
        0.0004289858043193817,
        -8.344650268554688e-07
      ]
    },
    {
      "children": [
        23
      ],
      "name": "Character1_LeftForeArm_014",
      "rotation": [
        -1.3604040987047483e-06,
        -0.031449608504772186,
        6.279848457779735e-05,
        0.999505341053009
      ],
      "translation": [
        27.30547523498535,
        0.00035440921783447266,
        -2.0742416381835938e-05
      ]
    },
    {
      "children": [
        24
      ],
      "name": "Character1_LeftHand_015",
      "rotation": [
        1.862645593320167e-09,
        5.127280928718392e-06,
        -0.0002320651983609423,
        1.0
      ],
      "scale": [
        0.9999998807907104,
        0.9999999403953552,
        1.0
      ],
      "translation": [
        26.697168350219727,
        -0.0027403831481933594,
        -1.1682510375976563e-05
      ]
    },
    {
      "name": "Character1_LeftHand_end_024",
      "rotation": [
        0.0,
        0.0,
        1.3877787807814457e-17,
        1.0
      ],
      "translation": [
        3.552713678800501e-15,
        26.6971492767334,
        0.0
      ]
    },
    {
      "children": [
        26
      ],
      "name": "Character1_RightShoulder_016",
      "rotation": [
        0.06349417567253113,
        0.09468647092580795,
        0.43367135524749756,
        0.8938300013542175
      ],
      "scale": [
        0.9999999403953552,
        1.0,
        1.0
      ],
      "translation": [
        -11.834810256958008,
        9.945603370666504,
        -3.75319242477417
      ]
    },
    {
      "children": [
        27
      ],
      "name": "Character1_RightArm_017",
      "rotation": [
        -0.28143802285194397,
        0.2792336046695709,
        0.35513049364089966,
        0.8465834856033325
      ],
      "scale": [
        0.9999998807907104,
        0.9999998211860657,
        0.9999999403953552
      ],
      "translation": [
        -32.450401306152344,
        0.00043487548828125,
        -6.198883056640625e-06
      ]
    },
    {
      "children": [
        28
      ],
      "name": "Character1_RightForeArm_018",
      "rotation": [
        0.0003451600205153227,
        0.020043453201651573,
        -0.00022059830371290445,
        0.9997990131378174
      ],
      "scale": [
        1.0,
        0.9999998211860657,
        1.0
      ],
      "translation": [
        -27.305477142333984,
        0.0007534027099609375,
        0.0002779960632324219
      ]
    },
    {
      "children": [
        29
      ],
      "name": "Character1_RightHand_019",
      "rotation": [
        -0.00016980530926957726,
        -2.276153054481256e-06,
        0.0007299970020540059,
        0.9999998211860657
      ],
      "scale": [
        0.9999999403953552,
        1.0,
        1.0
      ],
      "translation": [
        -26.69715118408203,
        -0.008634090423583984,
        -9.5367431640625e-07
      ]
    },
    {
      "name": "Character1_RightHand_end_025",
      "rotation": [
        5.551115123125783e-17,
        -1.3877787807814457e-17,
        7.703719777548943e-34,
        1.0
      ],
      "translation": [
        -7.105427357601002e-15,
        26.697134017944336,
        -1.7763568394002505e-15
      ]
    },
    {
      "children": [
        31
      ],
      "name": "Character1_Neck_020",
      "rotation": [
        -0.1850862354040146,
        -0.08310955762863159,
        0.2565521001815796,
        0.9449957013130188
      ],
      "scale": [
        0.9999999403953552,
        1.0,
        1.0
      ],
      "translation": [
        5.316734313964844e-05,
        18.772920608520508,
        -3.4178099632263184
      ]
    },
    {
      "children": [
        32
      ],
      "name": "Character1_Head_021",
      "rotation": [
        -0.10972423851490021,
        -0.11120084673166275,
        0.006024457514286041,
        0.9877037405967712
      ],
      "scale": [
        0.9999999403953552,
        1.0,
        0.9999999403953552
      ],
      "translation": [
        -1.6689300537109375e-06,
        19.999996185302734,
        2.1457672119140625e-06
      ]
    },
    {
      "name": "Character1_Head_end_026",
      "rotation": [
        8.673617379884035e-19,
        -4.336808689942018e-19,
        -5.0245994431125096e-18,
        1.0
      ],
      "translation": [
        -3.552713678800501e-15,
        20.0,
        -1.7763568394002505e-15
      ]
    },
    {
      "matrix": [
        0.9365103244781494,
        0.0,
        0.0,
        0.0,
        0.0,
        0.9365103244781494,
        -7.070455735590244e-08,
        0.0,
        0.0,
        7.070455735590244e-08,
        0.9365103244781494,
        0.0,
        0.0,
        0.0,
        -7.373702343160815e-14,
        1.0
      ],
      "name": "Object_33"
    },
    {
      "mesh": 0,
      "name": "Object_34",
      "skin": 0
    }
  ],
  "samplers": [
    {
      "magFilter": 9729,
      "minFilter": 9987,
      "wrapS": 10497,
      "wrapT": 10497
    }
  ],
  "scene": 0,
  "scenes": [
    {
      "name": "Sketchfab_Scene",
      "nodes": [
        0
      ]
    }
  ],
  "skins": [
    {
      "inverseBindMatrices": 4,
      "joints": [
        5,
        6,
        7,
        8,
        9,
        10,
        11,
        12,
        13,
        14,
        15,
        16,
        17,
        18,
        19,
        20,
        21,
        22,
        23,
        24,
        25,
        26,
        27,
        28,
        29,
        30,
        31,
        32
      ],
      "skeleton": 5
    }
  ],
  "textures": [
    {
      "sampler": 0,
      "source": 0
    }
  ]
}
